<mxfile host="www.draw.io" modified="2019-11-30T06:09:11.614Z" agent="Mozilla/5.0 (Macintosh; Intel Mac OS X 10_14_6) AppleWebKit/537.36 (KHTML, like Gecko) Chrome/78.0.3904.108 Safari/537.36" etag="JFpomjPg66Q9HIHD3DYu" version="12.3.3" type="github" pages="1">
  <diagram id="tT2QU-0AeR5U1HMNpRJd" name="Page-1">
    <mxGraphModel dx="1426" dy="794" grid="1" gridSize="10" guides="1" tooltips="1" connect="1" arrows="1" fold="1" page="1" pageScale="1" pageWidth="850" pageHeight="1100" math="0" shadow="0">
      <root>
        <mxCell id="0"/>
        <mxCell id="1" parent="0"/>
        <mxCell id="o4awrm30oj-JB4KY-SoR-1" value="" style="endArrow=none;html=1;" parent="1" edge="1">
          <mxGeometry width="50" height="50" relative="1" as="geometry">
            <mxPoint x="70" y="570" as="sourcePoint"/>
            <mxPoint x="71" y="100" as="targetPoint"/>
          </mxGeometry>
        </mxCell>
        <UserObject label="%date{ddd mmm dd yyyy HH:MM:ss}%" placeholders="1" id="o4awrm30oj-JB4KY-SoR-3">
          <mxCell style="text;html=1;strokeColor=none;fillColor=none;align=center;verticalAlign=middle;whiteSpace=wrap;overflow=hidden;" parent="1" vertex="1">
            <mxGeometry x="170" y="170" width="160" height="20" as="geometry"/>
          </mxCell>
        </UserObject>
      </root>
    </mxGraphModel>
  </diagram>
</mxfile>
